<?xml version="1.0" encoding="UTF-8"?><svg id="b" xmlns="http://www.w3.org/2000/svg" viewBox="0 0 512.99 461.21"><g id="c"><path d="m486.55,177.66c-3.76,2.56-5.44,2.48-9.94,2-2.87-1.22-5.4-2.85-8-4.56-.77-.49-1.54-.98-2.33-1.48-2.57-1.64-5.12-3.3-7.67-4.96-1.86-1.2-3.72-2.41-5.59-3.61-4.86-3.16-9.72-6.34-14.57-9.53-4.4-2.88-8.81-5.75-13.22-8.61q-1.23-.8-2.48-1.62c-5.9-3.83-11.81-7.65-17.71-11.47-7.97-5.15-15.93-10.33-23.88-15.5-4.18-2.72-8.37-5.44-12.55-8.16-5.04-3.27-10.07-6.55-15.11-9.82-7.79-5.07-15.58-10.13-23.39-15.18-6.11-3.95-12.21-7.91-18.31-11.88-.83-.54-1.67-1.08-2.52-1.63-4.31-2.8-8.61-5.6-12.89-8.42-21.06-13.84-39.18-25.26-65.39-20.98-13.28,3.59-25.1,12.03-36.35,19.68-4.6,3.12-9.25,6.15-13.92,9.17q-1.27.83-2.58,1.67c-6.03,3.92-12.07,7.82-18.11,11.73-5.48,3.54-10.96,7.1-16.43,10.66-6.85,4.45-13.7,8.9-20.57,13.34-5.48,3.54-10.96,7.1-16.43,10.66-6.48,4.21-12.95,8.42-19.44,12.62-.69.45-1.38.9-2.09,1.37-.65.42-1.3.84-1.97,1.27-.55.36-1.11.72-1.69,1.1q-1.81,1.14-4.38,2.04-2.58,1.81-2.89,4.17c-.19,2.89-.2,5.75-.17,8.66-.01,1.11-.01,2.23-.02,3.38-.02,3.77,0,7.53.02,11.3-.01,2.69-.01,5.38-.02,8.08-.02,6.56-.01,13.13,0,19.7.01,5.34.01,10.68.01,16.02v6.93c-.01,13.66,0,27.32.03,40.97.03,13.25.04,26.49.02,39.73-.01,14.42-.02,28.84,0,43.26,0,1.54,0,3.08,0,4.62v2.3c0,5.33,0,10.65,0,15.98,0,6.5,0,13,.03,19.51.01,3.31.01,6.63.01,9.94-.01,3.6,0,7.2.03,10.81,0,1.03-.02,2.07-.03,3.14.11,9.5,2.65,18.34,8.7,25.81,7.48,7.27,16.32,10.09,26.5,10.07.85,0,1.71,0,2.6.02,2.87.01,5.74.02,8.61.02,2.06.01,4.12.02,6.18.03,5.58.03,11.17.04,16.76.05,5.84.02,11.68.05,17.53.07,11.06.05,22.12.09,33.18.12,12.59.04,25.18.09,37.77.14,25.91.1,51.81.19,77.71.27-.06-18.51-.14-37.01-.24-55.52-.04-8.59-.08-17.19-.11-25.78-.02-7.49-.05-14.98-.1-22.48-.02-3.96-.04-7.93-.05-11.89,0-3.74-.02-7.47-.05-11.21-.02-2.02-.02-4.03-.01-6.05q-.01-10.49-4.75-19.58c-6.07-5.51-12.51-5.79-20.26-5.76-.94-.01-1.89-.01-2.86-.02-3.12-.01-6.23-.01-9.35-.01-2.17,0-4.34-.01-6.51-.01-4.55-.01-9.1-.01-13.65-.01-5.82.01-11.64-.01-17.46-.03-4.49-.01-8.97-.02-13.46-.01-2.14,0-4.29-.01-6.43-.02-3.01-.01-6.01,0-9.01.01-.89-.01-1.77-.02-2.68-.03-6.81.06-11.55,1.26-16.83,5.84-3.21,3.75-4.44,6.36-4.46,11.3,0,.95-.01,1.9-.02,2.87v3.14c0,1.09-.01,2.19-.02,3.32-.01,2.37-.02,4.75-.03,7.13,0,3.76-.02,7.52-.05,11.28-.05,7.99-.08,15.97-.11,23.96-.04,9.25-.08,18.5-.14,27.74-.02,3.71-.02,7.42-.03,11.13-.02,2.27-.03,4.54-.04,6.81v3.13c-.01.95-.02,1.9-.02,2.89-.01.82-.01,1.64-.01,2.49-.31,2.8-.98,4.87-2.26,7.37-3.79,2.26-5.87,3.22-10.25,2.38-2.61-1.31-3.97-2.12-5.75-4.38q-.38-2.19-.39-4.8-.02-1.48-.04-2.99c0-1.08.01-2.17.01-3.28-.01-1.15-.02-2.29-.03-3.46-.02-3.79-.02-7.58-.02-11.37-.01-2.64-.01-5.27-.02-7.91-.02-5.53-.02-11.07-.01-16.6.01-6.37-.02-12.74-.05-19.11-.04-6.15-.05-12.3-.04-18.45,0-2.6-.01-5.21-.03-7.81-.02-3.66-.01-7.32,0-10.98-.01-1.07-.02-2.13-.04-3.23.11-9.87,3.12-19.33,10.09-26.56.52-.48,1.03-.96,1.57-1.45.49-.46.98-.92,1.48-1.39,11.65-9.55,27.56-8.2,41.64-8.14,2.24,0,4.48,0,6.72,0,4.67-.01,9.34,0,14.01.02,5.95.02,11.9.01,17.86-.02,4.61-.01,9.23-.01,13.84,0,2.19,0,4.39,0,6.58-.01q30.03-.1,40.87,10.55c9.01,9.16,11.44,20.25,11.5,32.82q-.02,1.96-.05,3.97c0,1.43,0,2.86.01,4.29,0,3.84-.03,7.68-.05,11.52-.03,4.03-.03,8.06-.04,12.09-.01,7.61-.04,15.22-.08,22.83-.05,8.67-.07,17.34-.09,26.01-.04,17.83-.11,35.65-.2,53.47,7.89-.04,15.79-.1,23.68-.18,3.67-.04,7.33-.08,11-.09,3.55-.02,7.09-.05,10.64-.1,1.99-.02,3.99-.02,5.98-.02,11.29-.18,20.52-2.34,28.76-10.36,6.1-7.07,7.73-14.92,9.07-23.93.97-3.69,1.8-5.1,4.87-7.32q2.22-.53,4.5-.5c.75-.01,1.51-.02,2.28-.03,3.17.76,4.31,1.9,6.22,4.53,2.12,12.99-1.84,24.77-9.09,35.46-8.56,11.37-19.16,17.27-32.91,20.54-4.23.5-8.38.54-12.64.51q-1.8.01-3.64.02c-3.3,0-6.6,0-9.89-.01-3.58-.01-7.15.01-10.72.02-6.98.02-13.96.01-20.94,0-5.68,0-11.36,0-17.04,0h-7.39c-15.42.01-30.83,0-46.25-.02-13.2-.02-26.41-.02-39.61,0-15.37.02-30.73.03-46.09.02h-4.92c-.81,0-1.62,0-2.45,0-5.66,0-11.33,0-17,.02-6.91.01-13.82,0-20.73-.02-3.52-.01-7.05-.01-10.57,0-3.83,0-7.65,0-11.48-.02q-1.65.01-3.33.02c-14.19-.14-27.11-5.25-37.65-14.78-11.1-11.75-14.97-25.06-14.94-40.85,0-1.09-.01-2.18-.02-3.29-.01-3.63-.02-7.25-.02-10.87,0-2.6-.02-5.2-.03-7.8-.02-5.6-.04-11.19-.05-16.78-.01-8.09-.04-16.18-.06-24.26-.05-13.13-.09-26.25-.12-39.37-.03-12.75-.06-25.49-.1-38.23-.01-.79-.01-1.57-.01-2.38-.01-3.95-.02-7.89-.04-11.84-.1-32.69-.19-65.39-.27-98.08q-1.5,1.01-3.04,2.03c-1.34.9-2.69,1.8-4.03,2.69-.66.44-1.32.88-1.99,1.33-6.37,4.25-12.8,8.4-19.25,12.51-1.11.71-2.22,1.42-3.36,2.15q-10.71,6.85-17.33,6.29-2.94-1.44-5-4c-.72-3.15-.89-5.89,0-9,3.34-3.96,7.21-6.57,11.62-9.19,7.77-4.72,15.33-9.74,22.88-14.81,7.79-5.22,15.58-10.39,23.57-15.31,8.85-5.46,17.51-11.22,26.21-16.92,3.8-2.47,7.6-4.94,11.41-7.39,6.11-3.95,12.21-7.91,18.31-11.88,6.16-4.01,12.33-8.01,18.5-12,9.51-6.15,19.01-12.32,28.5-18.5,1.71-1.11,3.41-2.22,5.12-3.33.84-.54,1.68-1.09,2.54-1.65,2.5-1.63,5.01-3.26,7.52-4.88,3.12-2.03,6.25-4.07,9.36-6.12,23.95-15.69,45.29-26.39,74.86-21.4,17.39,4.19,32.01,14.65,46.67,24.43,4.7,3.13,9.44,6.19,14.18,9.26l4.89,3.18c.68.44,1.35.88,2.05,1.33,1.61,1.05,3.21,2.11,4.81,3.18.33-15.18.66-30.36,1-46-1.65-.66-3.3-1.32-5-2-2.62-2.44-2.98-3.85-3.5-7.44C327.35.41,333.64-.07,341.09.03c.95-.01,1.9-.02,2.88-.02,3.13-.02,6.26,0,9.39.02,2.18,0,4.36,0,6.53-.01,4.57,0,9.13.02,13.69.04,5.85.04,11.7.03,17.55,0,4.49,0,8.99,0,13.49.02,2.15,0,4.31,0,6.46-.01,3.02,0,6.03.02,9.05.05.89,0,1.78-.02,2.69-.02,4.13.06,6.27.23,9.84,2.44,2.23,2.41,2.61,3.38,2.51,6.61-.18,3.15-.44,4.33-2.25,7-2.5,1.62-4.4,2-7.31,2.5.01.74.02,1.48.03,2.24.08,6.99.14,13.98.18,20.97.02,3.59.05,7.19.09,10.78.05,3.47.07,6.94.08,10.4.01,1.97.04,3.93.07,5.9v3.63c.01,1.06.02,2.11.03,3.2-.6,3.61-1.97,5.27-4.48,7.88-2.85,1.43-4.83,1.31-8,1-2.7-1.8-4.54-3.08-6-6-.09-1.91-.12-3.82-.11-5.73v-3.64c0-1.31.01-2.61.01-3.95s.01-2.69.01-4.03c0-3.53.01-7.07.02-10.6.01-3.61.02-7.21.02-10.82.01-7.08.03-14.15.05-21.23h-55c-.8,14.98-1.36,29.87-.78,44.87q.01,1.88.03,3.79c.37,7.05,1.78,11.42,6.9,16.36,4.97,4.47,9.99,6.52,16.27,8.61,6.23,2.38,11.44,6.27,16.89,10.06,2.17,1.43,4.34,2.85,6.52,4.27,1.04.68,2.08,1.36,3.15,2.06,11.17,7.31,22.38,14.57,33.59,21.82,6.33,4.09,12.65,8.2,18.96,12.31,4.07,2.65,8.15,5.29,12.24,7.91.75.48,1.51.97,2.29,1.47,1.4.9,2.8,1.8,4.21,2.69,5.49,3.53,11.1,7.15,15.73,11.78.56,4.88.75,6.92-2.06,11Z"/><path d="m512.99,294.04c-.06,3.52-.15,4.34-2.44,7.18-3.92,1.92-5.61,2.29-9.94,1.44-2.54-1.72-4.81-3.65-7.15-5.64-11.89-9.83-26.36-17.55-41.85-19.36-1.13-.13-2.26-.27-3.42-.4-21.16-1.95-42.94,3.24-59.57,16.85-1.7,1.53-3.38,3.08-5.02,4.67-3.04,2.88-4.64,3.84-8.87,4.32-3.34-.11-4.18-.48-7.12-2.44-1.99-2.99-3.05-5.12-2.79-8.77,3.44-9.77,16.25-16.31,24.79-21.23.98-.57,1.96-1.13,2.96-1.72,39.32-21.14,85.37-11.31,117.68,17.34,2.39,2.42,2.59,4.46,2.74,7.76Z"/><path d="m481.92,324.41c-.35,3.63-1.04,5.42-3.31,8.25-3.53,2.36-4.84,2.49-9,2-2.84-1.64-5.38-3.53-7.99-5.5-8.6-6.13-17.71-8.69-28.22-7.18-7.67,1.45-13.39,4.44-19.35,9.43-3.02,2.41-4.3,3.22-8.19,4-4.16-.96-5.69-2.36-8.25-5.75-1.32-3.21-1.14-4.57-.06-7.88,6.71-10.17,18.99-16.14,30.75-18.56,17.69-2.35,34.13,1.31,48,12.88,3.01,2.88,4.22,4.31,5.62,8.31Z"/><path d="m435.24,195.41c0,.94,0,1.88.01,2.85,0,1.97-.02,3.95-.04,5.93-.04,3.03-.02,6.05,0,9.08-.01,1.92-.02,3.85-.03,5.77,0,.9.01,1.81.01,2.74q-.12,6.24-2.44,9.42c-2.83,1.93-4.71,2.39-8.14,2.46q-3.25-1.06-6-3c-2.08-4.7-2.31-9.19-2.3-14.25-.01-.78-.01-1.55-.01-2.35-.01-1.64-.01-3.27-.01-4.9.01-2.49-.02-4.98-.04-7.47v-4.78c-.01-.74-.02-1.48-.03-2.24.04-4.74.84-8.01,3.39-12.01,3.75-2.5,5.56-2.54,10-2,2.82,2.01,4.69,3.61,5.46,7.09.19,2.57.21,5.09.17,7.66Z"/><path d="m452.02,370.04c-3.48,4-7.1,5.17-12.37,5.6-4.47.04-7.66-.71-11-3.79-4.46-4.95-6.38-8.25-6.25-15.14.49-4.76,2.74-7.84,6.27-10.86,5.19-3.87,9.58-3.84,15.94-3.19,5,2.46,8.5,6,11,11,.83,6.4.22,11.1-3.59,16.38Z"/></g></svg>