<?xml version="1.0" encoding="UTF-8"?><svg id="b" xmlns="http://www.w3.org/2000/svg" viewBox="0 0 299.95 326.88"><g id="c"><path d="m129.66,277.68c-.63-.28-.59-.78-.4-1.31-2.02-6.2-5.25-11.63-10.11-16.04-.79-.72-1.43-1.51-1.41-2.72.06-3.51.03-7.02.02-10.54,0-1.21.19-1.72,1.78-1.75,9.87-.18,16.93-7.87,16.83-17.36-.19-18.92-.06-37.84-.13-56.75-.1-28.63-.04-57.26,0-85.9,0-4.62-1.4-8.71-4.31-12.22-3.66-4.42-8.88-5.61-14.16-5.64-28.74-.15-57.48-.17-86.22.01-6.17.04-11.8,2.1-14.99,8.14.03.94.06,1.9-1.27,1.96-.24.85-.48,1.7-.72,2.56.38,1.01-.1,1.79-.65,2.56.21,1.77.61,3.54.61,5.31.04,37.91.03,75.83.03,113.75,0,1.31-.25,2.21-1.44,3.2C4.26,212.35.02,222.02,0,233.5c-.01,4.2,1.5,8.18,2.51,12.23.16.1.32.19.48.29-.15.12-.31.22-.47.33-.2,1.71,1.06,2.92,1.5,4.41,4.21,14.28,10.34,27.87,14.78,42.08,2.53,8.09,5.64,16,8.66,23.93,1.39,3.63,2.09,7.73,5.73,10.12h2.56c4.71-4.4,4.72-4.79,2.02-11.87-1.14-3-2.68-5.91-2.77-9.23-.85-.06-1.17-.55-1.15-1.35-1.37-4.93-4.06-9.44-4.61-14.63-.85-.06-1.17-.55-1.15-1.35-2.44-6.93-4.9-13.86-7.3-20.81-.3-.87-.34-1.84-.51-2.76-.84-.06-1.17-.56-1.14-1.35-1.39-4.92-4.02-9.46-4.61-14.63-.84-.06-1.17-.55-1.14-1.35-.4-1.26-.8-2.51-1.2-3.76-.43-1.7-.85-3.41-1.28-5.11v-1.28c-.07-.84-.15-1.67-.22-2.51-1.42-5.14.16-9.73,2.58-14.17.17-.56.33-1.4.95-1.29.76.13.31.9.24,1.42.41,4.41-.58,8.91.78,13.24,2.02,6.47,7.86,10.96,14.5,11,17.33.09,34.66.08,51.99.12.45,0,.9,0,1.36-.01,3.47-.94,4.42-3.55,4.42-6.75.01-13.72,0-27.46.01-41.18,0-6.36,3.73-10.32,9.7-10.35,6.29-.04,10.29,3.8,10.29,10.26,0,20.95-.09,41.91-.19,62.87,0,1.7.49,3.06,1.65,4.27,2.47,2.57,5.13,4.98,7.27,7.8,1.47,1.95,2.3,4.43,3.22,6.75.72,1.83,1.11,3.78,2.4,5.35.21.24.57.58.51.76-1.4,4.49.12,9.14-.91,13.67-1.58,6.94-3.41,13.76-6.36,20.28-1.54,3.4-.42,5.4,3.74,7.99h1.92c1.47-1.53,3.24-2.71,4.18-4.81,1.74-3.89,2.79-7.99,4.15-11.99,2.52-7.46,2.75-15.21,2.56-23-.08-3.27-.6-6.43-2-9.41Zm-20.04-97.14c-6.47-4.36-13.74-5.69-20.89-2.11-6.9,3.47-11.3,9.21-11.37,17.34-.12,12.04-.1,24.08,0,36.12.02,2.27-.41,3.11-2.93,3.09-14.06-.13-28.12-.04-42.19-.08-6.08,0-8.01-2.18-7.48-8.22.06-.63,0-1.28,0-1.92,0-46.02.08-92.04-.1-138.07-.03-6.91,2.47-9.2,9.25-9.18,27.91.13,55.82.06,83.73.05,2.53,0,4.95.15,5.82,3.17,1.26.05,2.97-.3,1.76,1.97.57,1.38.81,2.79.81,4.31-.03,45.7-.01,91.4-.06,137.11,0,2.18.11,4.37-.55,6.59-.97,3.23-3.58,3.97-6.2,4.66-1.67.44-1.46-1.06-1.47-2.09-.01-5.32,0-10.66,0-15.98,0-6.82.11-13.64-.04-20.45-.14-6.65-2.44-12.51-8.1-16.31Z"/><path d="m297.25,215.39c-3.63-5.89-9.21-8.27-15.69-8.57-6.7-.33-13.42-.08-20.13-.08q-4.09,0-4.09-4.09c0-59.1.01-118.2-.03-177.31,0-3.47-.11-7.03-.83-10.41-1.42-6.61-5.86-10.95-11.74-13.94-.63-.08-1.26-.17-1.88-.25-2.01-.85-4.17-.71-6.25-.71-36.58-.05-73.15-.04-109.73,0-2.83,0-5.68-.04-8.32,1.58-5.21,3.17-9.3,7.12-10.57,13.36-.38.2-.76.4-1.15.6-.11.18-.12.37-.03.56.96.09,1.36.54.97,1.5-.52,13.42-.12,26.84-.2,40.26,0,.52.19,1.04.28,1.57.33,2.17,1.95,3.29,3.75,3.89,1.9.63,3.42-.58,4.68-1.91,1.34-1.4,1.48-3.18,1.47-5.04-.03-11.72-.04-23.44,0-35.16.03-7.71,3.54-11.16,11.32-11.2,6.82-.04,13.63-.01,20.45-.01,28.23,0,56.46,0,84.69.01,5.22,0,10.07.98,11.99,6.7.9,2.67.94,5.58.94,8.43v177.38c0,.64-.07,1.29.01,1.92.24,1.88-.65,2.33-2.4,2.31-9.48-.06-18.96-.06-28.44,0-1.69.01-2.66-.6-3.58-2.01-8.21-12.52-23.83-18.64-38.38-15.35-11.66,2.63-20.13,9.46-25.1,20.03-4.27,9.08-4.78,18.48-.9,28.31,2.68,6.77,7.01,11.67,12.18,16.26.16.13.31.28.47.42,1.25.78,2.46,1.62,3.75,2.31,8.12,4.31,16.59,5.93,25.69,3.64,9.43-2.36,16.64-7.85,22.2-15.6,1.1-1.53,2.23-1.9,3.93-1.89,9.04.06,18.09.13,27.13-.04,2.69-.04,3.49.84,3.46,3.42-.1,9.04-.17,18.09.03,27.13.08,3.61-.99,6.59-3.07,9.37-.18.21-.36.42-.54.63-1.88,1.36-3.86,2.42-6.29,2.41-30.88-.03-61.75-.03-92.63-.08-1.63,0-3.11.38-4.6.93-.45.42-.9.84-1.34,1.26-.94,1.9-.95,3.79.01,5.68.65.21,1.02.69,1.26,1.29,1.71,1.19,3.67.86,5.56.86,28.22.02,56.44.02,84.65,0,4.34,0,8.71.4,12.98-.85,4.47-1.3,8.58-3.84,10.79-7.54,2.38-3.99,3.58-8.81,3.43-13.85-.27-9.15.01-18.31-.13-27.47-.04-2.56.75-3.2,3.24-3.2,7.87,0,15.77.56,23.62-.29,12.43-1.36,20.2-15.65,13.1-27.17Zm-133.13,28.14c-11.73-11.49-10.35-25.66-1.28-36.28,10.05-11.78,29.26-10.42,38.28-.51-6.08,0-11.73.06-17.37-.03-3.97-.06-7.68.74-11.26,2.51-7.91,3.91-11.64,15.9-7.34,23.57,4.04,7.19,10.23,10.27,18.32,10.13,5.62-.1,11.24-.02,17.58-.02-14.85,13.07-26.51,10.82-36.93.62Zm119.87-11.26c-1.11.29-2.31.4-3.47.4-32.36.02-64.71.08-97.07-.07-3.25-.01-6.79-.06-8.54-4.34-2.63-6.42.05-11.17,7.08-11.28,7.13-.12,14.26-.03,21.39-.03h28.1c16.29,0,32.57-.01,48.86,0,4.84,0,7.9,2.04,9,5.87,1.15,3.99-1.31,8.4-5.34,9.45Z"/><path d="m238.9,78.86c0,17.36,0,34.73,0,52.09,0,5.66-1.72,7.37-7.41,7.37-28.01,0-56.03-.01-84.04.02-2.35,0-4-.7-5.07-2.93-1.02-2.11-.68-4.04.75-5.55,1.59-1.69,3.92-1.74,6.14-1.74,25.03,0,50.07.02,75.1,0,4.92,0,4.31.62,4.31-4.16.02-30.68-.03-61.36.08-92.04.01-2.88-.79-3.5-3.56-3.49-28.55.1-57.1.1-85.64,0-2.59,0-3.47.57-3.42,3.31.17,9.05.04,18.11.08,27.17.01,2.26-.76,4.22-2.32,5.64-1.28,1.17-3.13,1.34-4.77.54-1.79-.86-3.09-2.22-3.09-4.4,0-12.46-.08-24.93.06-37.39.04-3.45,2.31-5.02,6.4-5.03,14.28-.03,28.54-.01,42.82-.01,17.36,0,34.73.03,52.09-.03,2.56-.01,5.07.34,7.6.56,1.81.16,2.9,1.32,3.31,2.97.4,1.63.6,3.31.6,5.02-.05,17.36-.03,34.73-.03,52.09Z"/><path d="m220.39,45.87c0,2.07-4.07,4.75-6.66,4.75-20.86,0-41.71-.03-62.56-.03-2.47,0-4.99-.55-5.88-2.93-.81-2.15-.51-4.57,1.69-6.33,1.35-1.08,2.77-.92,4.22-.92,10.32-.03,20.64-.02,30.96-.02s20.43,0,30.65,0c1.04,0,2.14-.21,3.12.35,2.1,1.19,4.48,2.33,4.47,5.13Z"/><path d="m220.47,66.89c.25,3.52-4.22,7.55-8.33,7.52-3.8-.03-6.98-3.24-6.98-7.04-.01-4.75,2.36-7.05,7.27-7.07,3.68-.01,7.82,3.38,8.05,6.59Z"/><path d="m199.4,67.17c-.01,4.2-3.01,7.28-7.07,7.25-3.59-.03-8.17-3.68-8.19-6.54-.03-3.84,3.97-7.57,8.14-7.57,4.77,0,7.14,2.28,7.13,6.86Z"/><path d="m219.86,109.19c0,3.64-3.9,7.37-7.68,7.37s-6.98-3.94-7.04-8.57c-.03-2.97,3.4-6.04,6.89-6.14,4.22-.13,7.82,3.25,7.82,7.34Z"/><path d="m179.61,109.15c.01,3.62-3.84,7.37-7.61,7.41-3.7.04-7.09-3.43-7.12-7.29-.03-3.91,3.16-7.32,6.94-7.43,4.21-.12,7.78,3.23,7.79,7.3Z"/><path d="m179.61,67.28c.06,3.99-3.34,7.13-7.61,7.13-3.97,0-7.05-3.12-7.11-7.22-.08-4.41,2.46-6.87,7.09-6.88,3.9-.78,7.57,2.99,7.63,6.98Z"/><path d="m159.75,69.01c.03,2.26-4.45,5.44-7.62,5.41-4.25-.03-7.05-2.83-7.08-7.07-.03-4.68,2.24-7.04,6.75-7.05,5.25,0,7.89,2.87,7.95,8.7Z"/><path d="m219.81,88.09c-.21,4.08-2.57,7.16-8.07,7.35-3.52.01-6.61-3.43-6.59-7.37.02-3.87,3.41-7.28,7.14-7.18,4.31.12,7.72,3.2,7.52,7.2Z"/><path d="m199.4,88.22c.03,4.11-2.85,7.22-6.67,7.22-4.24,0-7.41-3.13-7.45-7.34-.04-4.61,2.54-7.35,6.84-7.25,4.55.1,7.25,2.83,7.28,7.37Z"/><path d="m199.4,108.6c0,4.66-2.95,7.98-7.07,7.96-3.81-.02-7.07-3.41-7.06-7.34.02-4.22,2.93-7.32,6.95-7.39,4-.06,7.18,2.93,7.18,6.77Z"/><path d="m179.56,88.08c-.17,3.51-2.31,7.51-7.73,7.36-3.4.02-7.04-3.88-6.95-7.45.09-3.56,3.72-7.17,7.14-7.09,4.39.1,7.73,3.09,7.54,7.18Z"/><path d="m159.13,109.07c0,4.15-2.97,7.4-6.88,7.49-4.06.1-6.93-3.17-7.29-7.46-.28-3.47,3.26-7.32,7.11-7.27,4.04.05,7.05,3.1,7.05,7.24Z"/><path d="m159.13,88.2c0,4.04-2.87,7.21-6.59,7.25-4.13.04-7.3-3.17-7.55-7.17-.22-3.52,2.35-7,6.97-7.34,4.26-.31,7.16,2.77,7.17,7.26Z"/><path d="m115.64,129.03c-.94,1.61-2.47,3.46-5,2.26-.12-.33-.28-.61-.71-.53-.45-.19-.9-.38-1.35-.57-.12-.04-.24-.06-.37-.06-4.15-3.95-8.77-7.25-13.98-9.62-4.5-2.04-9.25-3.54-14.17-3.96-14.36-1.21-26.76,3.31-37.24,13.21-2.76,2.61-5.05,2.61-7.41.3-2.28-2.22-2.38-4.69.24-7.41,6.39-6.65,14.03-11.34,22.92-13.97,11.76-3.47,23.41-3.46,35.04.72,8.02,2.88,14.79,7.72,21.3,13.02,2.31,1.88,1.97,4.49.74,6.61Z"/><path d="m105.75,142.73c-1.54,2.11-4.51,2.7-6.7,1.12-4.09-2.98-8.18-5.94-13.14-7.32-12.49-3.47-23.84-1.32-33.95,6.94-2.39,1.95-5.28,1.7-7.32-.53-1.92-2.1-1.79-4.74.67-6.88,7.91-6.89,16.93-11.02,27.64-11.25,7.83-.17,15.3.87,22.29,4.54,0,.38.18.58.58.53,1.26.67,2.51,1.34,3.75,2.01.13.32.28.61.71.49.43.28.85.57,1.28.86.27.56.65.97,1.31,1.08.79.7,1.57,1.42,2.37,2.11,2.24,1.94,2.11,4.09.49,6.3Z"/><path d="m97.12,153.34c-.52,2.07-1.35,3.71-3.29,4.82-1.85,1.06-3.13.28-4.62-.6-8.82-5.23-17.75-5.87-26.83-.62-4.66,2.7-7.34,1.89-8.87-2.36-.77-2.15-.16-3.84,1.4-4.98,5.08-3.68,10.69-5.98,17.09-6.23,7.86-.31,15.32.66,22.05,5.16,1.85,1.24,2.55,2.93,3.06,4.81Z"/></g></svg>